<?xml version="1.0" encoding="utf-8"?>
<COLLADA xmlns="http://www.collada.org/2005/11/COLLADASchema" version="1.4.1" xmlns:xsi="http://www.w3.org/2001/XMLSchema-instance">
  <asset>
    <contributor>
      <author>Blender User</author>
      <authoring_tool>Blender 3.2.2 commit date:2022-08-02, commit time:18:15, hash:bcfdb14560e7</authoring_tool>
    </contributor>
    <created>2022-08-17T22:32:08</created>
    <modified>2022-08-17T22:32:08</modified>
    <unit name="meter" meter="1"/>
    <up_axis>Z_UP</up_axis>
  </asset>
  <library_effects>
    <effect id="Grass_C-effect">
      <profile_COMMON>
        <newparam sid="Grass_Clumps_C_2_png_001-surface">
          <surface type="2D">
            <init_from>Grass_Clumps_C_2_png_001</init_from>
          </surface>
        </newparam>
        <newparam sid="Grass_Clumps_C_2_png_001-sampler">
          <sampler2D>
            <source>Grass_Clumps_C_2_png_001-surface</source>
          </sampler2D>
        </newparam>
        <technique sid="common">
          <lambert>
            <emission>
              <color sid="emission">0 0 0 1</color>
            </emission>
            <diffuse>
              <texture texture="Grass_Clumps_C_2_png_001-sampler" texcoord="uv0"/>
            </diffuse>
            <index_of_refraction>
              <float sid="ior">1.45</float>
            </index_of_refraction>
          </lambert>
        </technique>
      </profile_COMMON>
    </effect>
  </library_effects>
  <library_images>
    <image id="Grass_Clumps_C_2_png_001" name="Grass_Clumps_C_2_png_001">
      <init_from>Grass_Clumps_C_2.png.001.png</init_from>
    </image>
  </library_images>
  <library_materials>
    <material id="Grass_C-material" name="Grass_C">
      <instance_effect url="#Grass_C-effect"/>
    </material>
  </library_materials>
  <library_geometries>
    <geometry id="Leaves_002-mesh" name="Leaves.002">
      <mesh>
        <source id="Leaves_002-mesh-positions">
          <float_array id="Leaves_002-mesh-positions-array" count="480">-0.136317 -0.1779149 0.1211957 -0.07108277 -0.2439455 0.114381 -0.132004 -0.1769474 4.22652e-4 -0.05482381 -0.2124348 -0.004290699 -0.143583 0.04290026 0.1109367 -0.1237654 0.1255196 0.1046988 -0.1397465 0.04418545 3.86902e-4 -0.09610438 0.1085402 -0.003927469 -0.08548694 0.1640733 0.1128791 -0.01362437 0.2121303 0.106532 -0.08173239 0.1623845 3.93691e-4 -0.004678249 0.1803401 -0.003996193 -0.05864936 -0.1327816 0.1961606 0.08859419 -0.1626036 0.1851306 -0.05372834 -0.1275885 6.84095e-4 0.08199268 -0.1055939 -0.006944656 0.05220907 0.03306716 0.1405663 -0.05295056 0.056113 0.1326624 0.04862403 0.02940243 4.90229e-4 -0.0488705 0.01519048 -0.004976451 -0.03927254 -0.01310545 0.08580452 0.01402091 -0.05155366 0.08097976 -0.03637474 -0.01192396 2.99244e-4 0.02167558 -0.0276454 -0.003037691 0.250283 0.03413635 0.09321904 0.2743081 -0.03309333 0.0879774 0.2481747 0.03146922 3.25107e-4 0.2470458 -0.03385955 -0.003300189 0.1149932 0.04841107 0.1314651 0.06865543 0.1377994 0.1240729 0.1102139 0.04879623 4.58496e-4 0.04167568 0.1103864 -0.004654228 -0.06454306 0.07110577 0.2123298 -0.08099651 -0.09067636 0.2003906 -0.05842548 0.06635761 7.40513e-4 -0.02028924 -0.07749813 -0.007517099 -0.05714559 0.04148936 0.09573644 -0.08636057 -0.02576035 0.09035325 -0.05516743 0.03861212 3.33885e-4 -0.05847656 -0.02840924 -0.003389298 0.1716557 -0.1113004 0.1212214 0.230867 -0.03979355 0.1144053 0.1702628 -0.1071044 4.2275e-4 0.1978855 -0.02675402 -0.004291594 -0.05599862 -0.04815888 0.09346187 -0.09246951 0.0134325 0.08820658 -0.05443215 -0.04513144 3.25945e-4 -0.06578153 0.01938664 -0.003308773 -0.2156942 -0.1051306 0.2234475 -0.2866021 0.05061924 0.2108833 -0.2111947 -0.0983358 7.79267e-4 -0.2216386 0.05793309 -0.007910668 0.09932661 -0.02739453 0.2389509 0.001021862 0.1269655 0.2255149 0.09061193 -0.02746778 8.33349e-4 -0.04340285 0.07298582 -0.008459568 0.2496076 0.05733156 0.1105645 0.2832048 -0.02039593 0.1043475 0.2473169 0.05401283 3.85605e-4 0.2509964 -0.02339589 -0.003914296 -0.08342742 0.2190507 0.1001448 -0.1588879 0.2053301 0.09451371 -0.08477818 0.2156572 3.49285e-4 -0.1449705 0.1795474 -0.003545343 -0.03452152 -0.1413585 0.2329919 -0.1837839 -0.0435729 0.219891 -0.0343405 -0.1328628 8.12549e-4 -0.1305963 -9.38104e-4 -0.008248567 -0.02194827 0.1720942 0.1107522 0.06074923 0.1909575 0.1045247 -0.01909905 0.169231 3.86269e-4 0.05780941 0.1586884 -0.003920912 -0.223192 -0.06173509 0.104836 -0.2576466 0.01078701 0.09894114 -0.2211331 -0.05851316 3.65611e-4 -0.2272273 0.01471471 -0.003711462 -0.01906096 0.08596158 0.2139022 -0.07817435 -0.06682229 0.2018746 -0.01438349 0.07971793 7.46003e-4 -0.01568454 -0.07020348 -0.00757277 -0.04261255 0.02826106 0.09868228 0.02520012 0.06162899 0.0931335 -0.0395534 0.02636498 3.44162e-4 0.02929067 0.0330488 -0.003493607 -0.2040286 -0.005789816 0.1371371 -0.2098163 -0.1106592 0.129426 -0.1999399 -0.008670687 4.78268e-4 -0.1710426 -0.1003454 -0.004855036 -0.1608898 -0.06699508 0.2176902 -0.07195687 -0.208017 0.2054497 -0.1529504 -0.06696355 7.59192e-4 -0.03126686 -0.1590204 -0.00770688 -0.01547181 -0.1435968 0.1223083 -0.1086995 -0.1344834 0.115431 -0.01745706 -0.1396021 4.26536e-4 -0.09435194 -0.101702 -0.004330039 -0.1033482 0.1249951 0.2403811 0.06541174 0.198568 0.2268646 -0.09611737 0.1200375 8.38344e-4 0.07215321 0.1285638 -0.008510172 -0.09119039 0.006006777 0.2244721 0.05068653 -0.09108132 0.2118502 -0.08368855 0.009285211 7.82853e-4 0.06915152 -0.02805685 -0.007946968 0.2336278 -0.1033065 0.1913269 0.1813148 -0.2401815 0.1805687 0.2267801 -0.104649 6.67245e-4 0.1377954 -0.2049762 -0.006773531 0.2508109 -0.01761001 0.1056057 0.2713744 0.06061226 0.0996676 0.2481712 -0.01480513 3.68298e-4 0.2405294 0.05881989 -0.003738701 -0.1096007 0.08040988 0.09240084 -0.1559 0.02689039 0.08720517 -0.1086083 0.07718932 3.22261e-4 -0.1309801 0.01641094 -0.003271222 0.1212428 -0.1337884 0.2359156 0.2290905 0.01117449 0.2226502 0.1181113 -0.1257742 8.22746e-4 0.1636714 0.03318202 -0.0083521 0.1701074 -0.1203507 0.1782303 0.09196984 -0.232275 0.1682085 0.1636155 -0.1200206 6.21568e-4 0.06057 -0.1906442 -0.006309866 0.14474 -0.2084268 0.1996455 0.02231246 -0.300027 0.1884196 0.1379507 -0.2057952 6.96244e-4 0.003538012 -0.2447164 -0.007068037 0.1025357 -0.2193388 0.2021961 0.2437803 -0.1558547 0.1908268 0.1035374 -0.2120327 7.05134e-4 0.2040003 -0.1120707 -0.007158339 0.03663593 -0.07786142 0.1682179 0.1080099 0.02939361 0.1587592 0.03410649 -0.07227188 5.86655e-4 0.06060463 0.04261827 -0.005955398 -0.05345934 -0.1787632 0.2127797 0.1070938 -0.2066749 0.2008153 -0.04827952 -0.1729844 7.42054e-4 0.09822273 -0.1450573 -0.007533013 0.1334475 0.1124444 0.114798 0.08301943 0.1844649 0.108343 0.1292663 0.112226 4.00376e-4 0.06283199 0.1576227 -0.004064142 -0.2064608 0.1708652 0.1668995 -0.1356144 0.2772585 0.1575149 -0.2003762 0.17069 5.82083e-4 -0.1053602 0.2389308 -0.005908668 0.1757176 0.007618844 0.1092851 0.1880426 -0.0751667 0.10314 0.1726857 0.005031466 3.81135e-4 0.1565157 -0.0698418 -0.003868997 -0.1010059 0.004935443 0.0954504 -0.102253 -0.0681563 0.09008324 -0.09808588 0.003040134 3.32886e-4 -0.07555848 -0.05995559 -0.003379225 -0.1148008 -0.01535493 0.1385338 -0.0858187 -0.1174185 0.1307442 -0.1099478 -0.01676088 4.83138e-4 -0.05218052 -0.09480845 -0.004904508</float_array>
          <technique_common>
            <accessor source="#Leaves_002-mesh-positions-array" count="160" stride="3">
              <param name="X" type="float"/>
              <param name="Y" type="float"/>
              <param name="Z" type="float"/>
            </accessor>
          </technique_common>
        </source>
        <source id="Leaves_002-mesh-normals">
          <float_array id="Leaves_002-mesh-normals-array" count="480">-0.5447317 -0.8352609 0.07487773 -0.5799481 -0.789447 -0.2010815 -0.2640004 -0.9602684 0.09048986 -0.7560536 -0.5795598 -0.3041276 -0.8983591 0.432833 0.07487797 -0.7228298 0.6850757 0.09049034 -0.9072594 0.3636794 -0.2112298 -0.9468629 0.1046754 -0.3041277 -0.3660475 0.9275789 0.07487815 -0.06594198 0.9937118 0.09049046 -0.4195382 0.8828287 -0.2111903 -0.6243805 0.7194828 -0.3041276 0.01369577 -0.9970987 0.07487785 -0.04112261 -0.9787164 -0.2010555 0.3164304 -0.9442899 0.09049022 -0.3043169 -0.9027168 -0.3041278 0.002167403 0.9971904 0.07487803 0.05664986 0.9779351 -0.2010813 -0.3013688 0.9492041 0.0904904 0.3186383 0.8977617 -0.3041276 -0.3987752 -0.9139868 0.07487785 -0.441132 -0.874631 -0.2010555 -0.101209 -0.9907413 0.09049016 -0.649551 -0.6968429 -0.3041277 0.9888238 0.1289217 0.07487785 0.9798151 -0.1782524 0.09049034 0.9584608 0.1917069 -0.2111907 0.8499688 0.4301853 -0.3041279 0.7679272 0.6361454 0.07487797 0.7879734 0.5819488 -0.2010813 0.5368959 0.8387815 0.09049034 0.8939139 0.3292783 -0.3041276 -0.990921 -0.1116642 0.07487797 -0.9780175 -0.05530399 -0.2010554 -0.9086033 -0.4077398 0.09049022 -0.9282634 0.2140873 -0.3041276 -0.9780494 0.1944547 0.07487791 -0.9486477 0.2442004 -0.2010813 -0.9895072 -0.1126375 0.09049028 -0.8194498 0.485807 -0.3041277 0.8854033 -0.458753 0.07487791 0.8433284 -0.4983611 -0.2010815 0.9818027 -0.1669585 0.09049022 0.6520421 -0.6945124 -0.3041277 -0.9462394 -0.3146811 0.07487791 -0.9958321 -0.0114032 0.09049028 -0.9044861 -0.3705446 -0.2111914 -0.7526081 -0.5840268 -0.3041278 -0.9745182 -0.2114421 0.07487791 -0.9913171 0.09540414 0.0904904 -0.9389938 -0.2714577 -0.2111905 -0.8108733 -0.4999907 -0.3041279 0.7084658 0.7017617 0.07487803 0.7332687 0.6495335 -0.2010554 0.4603689 0.8831037 0.09049034 0.8611786 0.4072812 -0.3041276 0.9784051 0.1926576 0.07487785 0.9892985 -0.1144556 0.09049016 0.944041 0.2533472 -0.2111914 0.8203405 0.4843015 -0.3041278 -0.3822785 0.9210084 0.07487821 -0.3245511 0.9242529 -0.2010552 -0.6438794 0.7597572 0.09049052 -0.05193382 0.9512147 -0.3041275 -0.710837 -0.6993599 0.07487785 -0.8889653 -0.4489458 0.09049022 -0.6487445 -0.731115 -0.2111906 -0.4183496 -0.8558562 -0.3041278 -0.01066517 0.9971357 0.07487779 0.2932689 0.9517379 0.09048992 -0.07660967 0.9744381 -0.2111906 -0.3262774 0.8950137 -0.3041276 -0.9709432 -0.2272945 0.07487779 -0.9927402 0.07923763 0.09049016 -0.9344454 -0.2867233 -0.2111907 -0.8026177 -0.5131384 -0.3041279 -0.9851449 0.1545409 0.07487797 -0.957787 0.2054774 -0.2010554 -0.9841113 -0.1527632 0.09049028 -0.8385185 0.4520988 -0.3041275 -0.2406256 0.9677255 0.07487803 0.0655775 0.9937359 0.09049046 -0.2995468 0.9304141 -0.2111904 -0.5241274 0.7954853 -0.3041276 -0.9847037 -0.1573277 0.07487785 -0.9744179 -0.1004315 -0.2010555 -0.8887945 -0.4492838 0.0904901 -0.9371634 0.170971 -0.3041277 -0.7115735 -0.6986106 0.07487791 -0.7361443 -0.6462726 -0.2010555 -0.464284 -0.8810516 0.09049022 -0.8629776 -0.403455 -0.3041277 -0.305162 -0.9493522 0.07487767 -0.5791494 -0.8101837 0.09048998 -0.2354224 -0.9486699 -0.2111915 0.02654808 -0.9522613 -0.3041279 -0.1957187 0.9777973 0.07487791 0.1113583 0.9896519 0.09049028 -0.2562987 0.9432442 -0.2111905 -0.4868656 0.8188214 -0.3041277 -0.3759394 -0.9236142 0.07487785 -0.419261 -0.8853231 -0.2010555 -0.07655757 -0.9929504 0.09049022 -0.6320338 -0.7127689 -0.3041278 0.8348621 -0.5453428 0.07487785 0.6281953 -0.7727757 0.0904901 0.8526451 -0.4779067 -0.2111905 0.9253841 -0.2262099 -0.3041276 0.9962494 -0.04336625 0.07487785 0.9747611 -0.09704327 -0.2010555 0.9608452 0.2618933 0.09049022 0.8838299 -0.3554589 -0.3041278 -0.8752989 0.4777503 0.07487797 -0.8323643 0.5164749 -0.2010555 -0.9779716 0.1881037 0.09049016 -0.6369051 0.7084196 -0.3041276 0.9080438 -0.4121286 0.07487791 0.8680714 -0.4539039 -0.2010554 0.9891515 -0.1157193 0.09049028 0.6872476 -0.6596947 -0.3041278 0.6780893 -0.7311554 0.07487773 0.4225304 -0.9018203 0.09048998 0.7116422 -0.6700354 -0.21123 0.8431447 -0.4434112 -0.3041278 0.4145949 -0.9069203 0.07487779 0.1184073 -0.9888334 0.0904901 0.4656441 -0.8594034 -0.2111906 0.6615602 -0.6854521 -0.3041277 0.5922934 -0.8022356 0.07487785 0.5370624 -0.8192254 -0.2010815 0.8075084 -0.5828739 0.09049034 0.2788727 -0.9108986 -0.3041279 0.9284057 -0.3639454 0.07487785 0.8906791 -0.4077593 -0.2010555 0.9938586 -0.06369084 0.09049028 0.7208954 -0.622749 -0.3041278 0.04131186 -0.9963366 0.07487773 -0.01399469 -0.9794799 -0.2010557 0.3424672 -0.935162 0.09049022 -0.2791932 -0.9108005 -0.304128 0.6770769 0.732093 0.07487803 0.7041125 0.6810228 -0.2010812 0.4212819 0.902404 0.09049022 0.8425303 0.4445776 -0.3041275 -0.6940119 0.7160593 0.07487809 -0.4422698 0.8923055 0.0904904 -0.7262316 0.6542066 -0.2111904 -0.8526945 0.4247539 -0.3041321 0.9950366 -0.06554126 0.07487785 0.9265525 -0.3651192 0.0904901 0.9774347 0.001922905 -0.211229 0.9173228 0.2569486 -0.3041322 -0.9780015 -0.1946958 0.07487791 -0.9698889 -0.1374492 -0.2010555 -0.8710486 -0.4827896 0.09049022 -0.9429922 0.1351745 -0.3041276 -0.8797411 -0.46952 0.07487785 -0.8885304 -0.4124074 -0.2010815 -0.6939566 -0.7143079 0.09049022 -0.9417394 -0.1436423 -0.3041278</float_array>
          <technique_common>
            <accessor source="#Leaves_002-mesh-normals-array" count="160" stride="3">
              <param name="X" type="float"/>
              <param name="Y" type="float"/>
              <param name="Z" type="float"/>
            </accessor>
          </technique_common>
        </source>
        <source id="Leaves_002-mesh-map-0">
          <float_array id="Leaves_002-mesh-map-0-array" count="480">0.8091107 0 0.08940023 0.9970427 0.1274413 0 0.8308026 0.9848157 0.08940023 0.9970427 0.8091107 0 0.8091107 0 0.1274413 0 0.08940029 0.9970427 0.8308026 0.9848157 0.8091107 0 0.08940029 0.9970427 0.8091107 0 0.1274413 0 0.08940023 0.9970428 0.8308026 0.9848157 0.8091107 0 0.08940023 0.9970428 0.8091107 0 0.08940023 0.9970428 0.1274413 0 0.8308026 0.9848157 0.08940023 0.9970428 0.8091107 0 0.8091107 0 0.08940023 0.9970427 0.1274413 0 0.8308026 0.9848157 0.08940023 0.9970427 0.8091107 0 0.8091107 0 0.08940017 0.9970428 0.1274413 0 0.8308026 0.9848157 0.08940017 0.9970428 0.8091107 0 0.8091107 0 0.1274413 0 0.08940017 0.9970428 0.8308026 0.9848157 0.8091107 0 0.08940017 0.9970428 0.8091107 0 0.08940023 0.9970428 0.1274413 0 0.8308026 0.9848157 0.08940023 0.9970428 0.8091107 0 0.8091107 0 0.08940023 0.9970428 0.1274413 0 0.8308026 0.9848157 0.08940023 0.9970428 0.8091107 0 0.8091107 0 0.08940023 0.9970428 0.1274413 0 0.8308026 0.9848157 0.08940023 0.9970428 0.8091107 0 0.8091107 0 0.08940017 0.9970428 0.1274413 0 0.8308026 0.9848157 0.08940017 0.9970428 0.8091107 0 0.8091107 0 0.1274413 0 0.08940023 0.9970428 0.8308026 0.9848157 0.8091107 0 0.08940023 0.9970428 0.8091107 0 0.1274413 0 0.08940023 0.9970428 0.8308026 0.9848157 0.8091107 0 0.08940023 0.9970428 0.8091107 0 0.08940017 0.9970428 0.1274413 0 0.8308026 0.9848157 0.08940017 0.9970428 0.8091107 0 0.8091107 0 0.1274413 0 0.08940017 0.9970428 0.8308026 0.9848157 0.8091107 0 0.08940017 0.9970428 0.8091107 0 0.08940017 0.9970428 0.1274413 0 0.8308026 0.9848157 0.08940017 0.9970428 0.8091107 0 0.8091107 0 0.1274413 0 0.08940023 0.9970428 0.8308026 0.9848157 0.8091107 0 0.08940023 0.9970428 0.8091107 0 0.1274413 0 0.08940017 0.9970428 0.8308026 0.9848157 0.8091107 0 0.08940017 0.9970428 0.8091107 0 0.1274413 0 0.08940023 0.9970428 0.8308026 0.9848157 0.8091107 0 0.08940023 0.9970428 0.8091107 0 0.08940017 0.9970428 0.1274413 0 0.8308026 0.9848157 0.08940017 0.9970428 0.8091107 0 0.8091107 0 0.1274413 0 0.08940023 0.9970427 0.8308026 0.9848157 0.8091107 0 0.08940023 0.9970427 0.8091107 0 0.08940017 0.9970428 0.1274413 0 0.8308026 0.9848157 0.08940017 0.9970428 0.8091107 0 0.8091107 0 0.08940017 0.9970428 0.1274413 0 0.8308026 0.9848157 0.08940017 0.9970428 0.8091107 0 0.8091107 0 0.1274413 0 0.08940023 0.9970427 0.8308026 0.9848157 0.8091107 0 0.08940023 0.9970427 0.8091107 0 0.1274413 0 0.08940017 0.9970428 0.8308026 0.9848157 0.8091107 0 0.08940017 0.9970428 0.8091107 0 0.08940017 0.9970428 0.1274413 0 0.8308026 0.9848157 0.08940017 0.9970428 0.8091107 0 0.8091107 0 0.1274413 0 0.08940023 0.9970428 0.8308026 0.9848157 0.8091107 0 0.08940023 0.9970428 0.8091107 0 0.08940023 0.9970428 0.1274413 0 0.8308026 0.9848157 0.08940023 0.9970428 0.8091107 0 0.8091107 0 0.08940023 0.9970428 0.1274413 0 0.8308026 0.9848157 0.08940023 0.9970428 0.8091107 0 0.8091107 0 0.08940023 0.9970428 0.1274413 0 0.8308026 0.9848157 0.08940023 0.9970428 0.8091107 0 0.8091107 0 0.1274413 0 0.08940023 0.9970427 0.8308026 0.9848157 0.8091107 0 0.08940023 0.9970427 0.8091107 0 0.1274413 0 0.08940023 0.9970428 0.8308026 0.9848157 0.8091107 0 0.08940023 0.9970428 0.8091107 0 0.08940023 0.9970427 0.1274413 0 0.8308026 0.9848157 0.08940023 0.9970427 0.8091107 0 0.8091107 0 0.08940023 0.9970428 0.1274413 0 0.8308026 0.9848157 0.08940023 0.9970428 0.8091107 0 0.8091107 0 0.08940023 0.9970428 0.1274413 0 0.8308026 0.9848157 0.08940023 0.9970428 0.8091107 0 0.8091107 0 0.08940017 0.9970428 0.1274413 0 0.8308026 0.9848157 0.08940017 0.9970428 0.8091107 0 0.8091107 0 0.1274413 0 0.08940023 0.9970428 0.8308026 0.9848157 0.8091107 0 0.08940023 0.9970428 0.8091107 0 0.1274413 0 0.08940017 0.9970428 0.8308026 0.9848157 0.8091107 0 0.08940017 0.9970428 0.8091107 0 0.08940017 0.9970428 0.1274413 0 0.8308026 0.9848157 0.08940017 0.9970428 0.8091107 0 0.8091107 0 0.08940023 0.9970428 0.1274413 0 0.8308026 0.9848157 0.08940023 0.9970428 0.8091107 0</float_array>
          <technique_common>
            <accessor source="#Leaves_002-mesh-map-0-array" count="240" stride="2">
              <param name="S" type="float"/>
              <param name="T" type="float"/>
            </accessor>
          </technique_common>
        </source>
        <source id="Leaves_002-mesh-map-1">
          <float_array id="Leaves_002-mesh-map-1-array" count="480">1 0.850371 1 0.9996291 1 0.850371 1 0.9996291 1 0.9996291 1 0.850371 1 0.850371 1 0.850371 1 0.9996291 1 0.9996291 1 0.850371 1 0.9996291 1 0.850371 1 0.850371 1 0.9996291 1 0.9996291 1 0.850371 1 0.9996291 1 0.850371 1 0.9996291 1 0.850371 1 0.9996291 1 0.9996291 1 0.850371 1 0.850371 1 0.9996291 1 0.850371 1 0.9996291 1 0.9996291 1 0.850371 1 0.850371 1 0.9996291 1 0.850371 1 0.9996291 1 0.9996291 1 0.850371 1 0.850371 1 0.850371 1 0.9996291 1 0.9996291 1 0.850371 1 0.9996291 1 0.850371 1 0.9996291 1 0.850371 1 0.9996291 1 0.9996291 1 0.850371 1 0.850371 1 0.9996291 1 0.850371 1 0.9996291 1 0.9996291 1 0.850371 1 0.850371 1 0.9996291 1 0.850371 1 0.9996291 1 0.9996291 1 0.850371 1 0.850371 1 0.9996291 1 0.850371 1 0.9996291 1 0.9996291 1 0.850371 1 0.850371 1 0.850371 1 0.9996291 1 0.9996291 1 0.850371 1 0.9996291 1 0.850371 1 0.850371 1 0.9996291 1 0.9996291 1 0.850371 1 0.9996291 1 0.850371 1 0.9996291 1 0.850371 1 0.9996291 1 0.9996291 1 0.850371 1 0.850371 1 0.850371 1 0.9996291 1 0.9996291 1 0.850371 1 0.9996291 1 0.850371 1 0.9996291 1 0.850371 1 0.9996291 1 0.9996291 1 0.850371 1 0.850371 1 0.850371 1 0.9996291 1 0.9996291 1 0.850371 1 0.9996291 1 0.850371 1 0.850371 1 0.9996291 1 0.9996291 1 0.850371 1 0.9996291 1 0.850371 1 0.850371 1 0.9996291 1 0.9996291 1 0.850371 1 0.9996291 1 0.850371 1 0.9996291 1 0.850371 1 0.9996291 1 0.9996291 1 0.850371 1 0.850371 1 0.850371 1 0.9996291 1 0.9996291 1 0.850371 1 0.9996291 1 0.850371 1 0.9996291 1 0.850371 1 0.9996291 1 0.9996291 1 0.850371 1 0.850371 1 0.9996291 1 0.850371 1 0.9996291 1 0.9996291 1 0.850371 1 0.850371 1 0.850371 1 0.9996291 1 0.9996291 1 0.850371 1 0.9996291 1 0.850371 1 0.850371 1 0.9996291 1 0.9996291 1 0.850371 1 0.9996291 1 0.850371 1 0.9996291 1 0.850371 1 0.9996291 1 0.9996291 1 0.850371 1 0.850371 1 0.850371 1 0.9996291 1 0.9996291 1 0.850371 1 0.9996291 1 0.850371 1 0.9996291 1 0.850371 1 0.9996291 1 0.9996291 1 0.850371 1 0.850371 1 0.9996291 1 0.850371 1 0.9996291 1 0.9996291 1 0.850371 1 0.850371 1 0.9996291 1 0.850371 1 0.9996291 1 0.9996291 1 0.850371 1 0.850371 1 0.850371 1 0.9996291 1 0.9996291 1 0.850371 1 0.9996291 1 0.850371 1 0.850371 1 0.9996291 1 0.9996291 1 0.850371 1 0.9996291 1 0.850371 1 0.9996291 1 0.850371 1 0.9996291 1 0.9996291 1 0.850371 1 0.850371 1 0.9996291 1 0.850371 1 0.9996291 1 0.9996291 1 0.850371 1 0.850371 1 0.9996291 1 0.850371 1 0.9996291 1 0.9996291 1 0.850371 1 0.850371 1 0.9996291 1 0.850371 1 0.9996291 1 0.9996291 1 0.850371 1 0.850371 1 0.850371 1 0.9996291 1 0.9996291 1 0.850371 1 0.9996291 1 0.850371 1 0.850371 1 0.9996291 1 0.9996291 1 0.850371 1 0.9996291 1 0.850371 1 0.9996291 1 0.850371 1 0.9996291 1 0.9996291 1 0.850371 1 0.850371 1 0.9996291 1 0.850371 1 0.9996291 1 0.9996291 1 0.850371</float_array>
          <technique_common>
            <accessor source="#Leaves_002-mesh-map-1-array" count="240" stride="2">
              <param name="S" type="float"/>
              <param name="T" type="float"/>
            </accessor>
          </technique_common>
        </source>
        <source id="Leaves_002-mesh-colors-color" name="color">
          <float_array id="Leaves_002-mesh-colors-color-array" count="960">1 1 1 1 1 1 1 1 1 1 1 1 1 1 1 1 1 1 1 1 1 1 1 1 1 1 1 1 1 1 1 1 1 1 1 1 1 1 1 1 1 1 1 1 1 1 1 1 1 1 1 1 1 1 1 1 1 1 1 1 1 1 1 1 1 1 1 1 1 1 1 1 1 1 1 1 1 1 1 1 1 1 1 1 1 1 1 1 1 1 1 1 1 1 1 1 1 1 1 1 1 1 1 1 1 1 1 1 1 1 1 1 1 1 1 1 1 1 1 1 1 1 1 1 1 1 1 1 1 1 1 1 1 1 1 1 1 1 1 1 1 1 1 1 1 1 1 1 1 1 1 1 1 1 1 1 1 1 1 1 1 1 1 1 1 1 1 1 1 1 1 1 1 1 1 1 1 1 1 1 1 1 1 1 1 1 1 1 1 1 1 1 1 1 1 1 1 1 1 1 1 1 1 1 1 1 1 1 1 1 1 1 1 1 1 1 1 1 1 1 1 1 1 1 1 1 1 1 1 1 1 1 1 1 1 1 1 1 1 1 1 1 1 1 1 1 1 1 1 1 1 1 1 1 1 1 1 1 1 1 1 1 1 1 1 1 1 1 1 1 1 1 1 1 1 1 1 1 1 1 1 1 1 1 1 1 1 1 1 1 1 1 1 1 1 1 1 1 1 1 1 1 1 1 1 1 1 1 1 1 1 1 1 1 1 1 1 1 1 1 1 1 1 1 1 1 1 1 1 1 1 1 1 1 1 1 1 1 1 1 1 1 1 1 1 1 1 1 1 1 1 1 1 1 1 1 1 1 1 1 1 1 1 1 1 1 1 1 1 1 1 1 1 1 1 1 1 1 1 1 1 1 1 1 1 1 1 1 1 1 1 1 1 1 1 1 1 1 1 1 1 1 1 1 1 1 1 1 1 1 1 1 1 1 1 1 1 1 1 1 1 1 1 1 1 1 1 1 1 1 1 1 1 1 1 1 1 1 1 1 1 1 1 1 1 1 1 1 1 1 1 1 1 1 1 1 1 1 1 1 1 1 1 1 1 1 1 1 1 1 1 1 1 1 1 1 1 1 1 1 1 1 1 1 1 1 1 1 1 1 1 1 1 1 1 1 1 1 1 1 1 1 1 1 1 1 1 1 1 1 1 1 1 1 1 1 1 1 1 1 1 1 1 1 1 1 1 1 1 1 1 1 1 1 1 1 1 1 1 1 1 1 1 1 1 1 1 1 1 1 1 1 1 1 1 1 1 1 1 1 1 1 1 1 1 1 1 1 1 1 1 1 1 1 1 1 1 1 1 1 1 1 1 1 1 1 1 1 1 1 1 1 1 1 1 1 1 1 1 1 1 1 1 1 1 1 1 1 1 1 1 1 1 1 1 1 1 1 1 1 1 1 1 1 1 1 1 1 1 1 1 1 1 1 1 1 1 1 1 1 1 1 1 1 1 1 1 1 1 1 1 1 1 1 1 1 1 1 1 1 1 1 1 1 1 1 1 1 1 1 1 1 1 1 1 1 1 1 1 1 1 1 1 1 1 1 1 1 1 1 1 1 1 1 1 1 1 1 1 1 1 1 1 1 1 1 1 1 1 1 1 1 1 1 1 1 1 1 1 1 1 1 1 1 1 1 1 1 1 1 1 1 1 1 1 1 1 1 1 1 1 1 1 1 1 1 1 1 1 1 1 1 1 1 1 1 1 1 1 1 1 1 1 1 1 1 1 1 1 1 1 1 1 1 1 1 1 1 1 1 1 1 1 1 1 1 1 1 1 1 1 1 1 1 1 1 1 1 1 1 1 1 1 1 1 1 1 1 1 1 1 1 1 1 1 1 1 1 1 1 1 1 1 1 1 1 1 1 1 1 1 1 1 1 1 1 1 1 1 1 1 1 1 1 1 1 1 1 1 1 1 1 1 1 1 1 1 1 1 1 1 1 1 1 1 1 1 1 1 1 1 1 1 1 1 1 1 1 1 1 1 1 1 1 1 1 1 1 1 1 1 1 1 1 1 1 1 1 1 1 1 1 1 1 1 1 1 1 1 1 1 1 1 1 1 1 1 1 1 1 1 1 1 1 1 1 1 1 1 1 1 1 1 1 1 1 1 1 1 1 1 1 1 1 1 1 1 1 1 1 1 1 1 1 1 1 1 1 1 1</float_array>
          <technique_common>
            <accessor source="#Leaves_002-mesh-colors-color-array" count="240" stride="4">
              <param name="R" type="float"/>
              <param name="G" type="float"/>
              <param name="B" type="float"/>
              <param name="A" type="float"/>
            </accessor>
          </technique_common>
        </source>
        <vertices id="Leaves_002-mesh-vertices">
          <input semantic="POSITION" source="#Leaves_002-mesh-positions"/>
        </vertices>
        <triangles material="Grass_C-material" count="80">
          <input semantic="VERTEX" source="#Leaves_002-mesh-vertices" offset="0"/>
          <input semantic="NORMAL" source="#Leaves_002-mesh-normals" offset="1"/>
          <input semantic="TEXCOORD" source="#Leaves_002-mesh-map-0" offset="2" set="0"/>
          <input semantic="TEXCOORD" source="#Leaves_002-mesh-map-1" offset="2" set="1"/>
          <input semantic="COLOR" source="#Leaves_002-mesh-colors-color" offset="3" set="0"/>
          <p>3 0 0 0 0 1 1 1 2 2 2 2 1 3 3 3 0 1 4 4 3 0 5 5 7 4 6 6 6 5 7 7 4 6 8 8 5 7 9 9 7 4 10 10 4 6 11 11 11 8 12 12 10 9 13 13 8 10 14 14 9 11 15 15 11 8 16 16 8 10 17 17 15 12 18 18 12 13 19 19 14 14 20 20 13 15 21 21 12 13 22 22 15 12 23 23 19 16 24 24 16 17 25 25 18 18 26 26 17 19 27 27 16 17 28 28 19 16 29 29 23 20 30 30 20 21 31 31 22 22 32 32 21 23 33 33 20 21 34 34 23 20 35 35 27 24 36 36 26 25 37 37 24 26 38 38 25 27 39 39 27 24 40 40 24 26 41 41 31 28 42 42 28 29 43 43 30 30 44 44 29 31 45 45 28 29 46 46 31 28 47 47 35 32 48 48 32 33 49 49 34 34 50 50 33 35 51 51 32 33 52 52 35 32 53 53 39 36 54 54 36 37 55 55 38 38 56 56 37 39 57 57 36 37 58 58 39 36 59 59 43 40 60 60 40 41 61 61 42 42 62 62 41 43 63 63 40 41 64 64 43 40 65 65 47 44 66 66 46 45 67 67 44 46 68 68 45 47 69 69 47 44 70 70 44 46 71 71 51 48 72 72 50 49 73 73 48 50 74 74 49 51 75 75 51 48 76 76 48 50 77 77 55 52 78 78 52 53 79 79 54 54 80 80 53 55 81 81 52 53 82 82 55 52 83 83 59 56 84 84 58 57 85 85 56 58 86 86 57 59 87 87 59 56 88 88 56 58 89 89 63 60 90 90 60 61 91 91 62 62 92 92 61 63 93 93 60 61 94 94 63 60 95 95 67 64 96 96 66 65 97 97 64 66 98 98 65 67 99 99 67 64 100 100 64 66 101 101 71 68 102 102 70 69 103 103 68 70 104 104 69 71 105 105 71 68 106 106 68 70 107 107 75 72 108 108 74 73 109 109 72 74 110 110 73 75 111 111 75 72 112 112 72 74 113 113 79 76 114 114 76 77 115 115 78 78 116 116 77 79 117 117 76 77 118 118 79 76 119 119 83 80 120 120 82 81 121 121 80 82 122 122 81 83 123 123 83 80 124 124 80 82 125 125 87 84 126 126 84 85 127 127 86 86 128 128 85 87 129 129 84 85 130 130 87 84 131 131 91 88 132 132 88 89 133 133 90 90 134 134 89 91 135 135 88 89 136 136 91 88 137 137 95 92 138 138 94 93 139 139 92 94 140 140 93 95 141 141 95 92 142 142 92 94 143 143 99 96 144 144 98 97 145 145 96 98 146 146 97 99 147 147 99 96 148 148 96 98 149 149 103 100 150 150 100 101 151 151 102 102 152 152 101 103 153 153 100 101 154 154 103 100 155 155 107 104 156 156 106 105 157 157 104 106 158 158 105 107 159 159 107 104 160 160 104 106 161 161 111 108 162 162 108 109 163 163 110 110 164 164 109 111 165 165 108 109 166 166 111 108 167 167 115 112 168 168 112 113 169 169 114 114 170 170 113 115 171 171 112 113 172 172 115 112 173 173 119 116 174 174 116 117 175 175 118 118 176 176 117 119 177 177 116 117 178 178 119 116 179 179 123 120 180 180 122 121 181 181 120 122 182 182 121 123 183 183 123 120 184 184 120 122 185 185 127 124 186 186 126 125 187 187 124 126 188 188 125 127 189 189 127 124 190 190 124 126 191 191 131 128 192 192 128 129 193 193 130 130 194 194 129 131 195 195 128 129 196 196 131 128 197 197 135 132 198 198 132 133 199 199 134 134 200 200 133 135 201 201 132 133 202 202 135 132 203 203 139 136 204 204 136 137 205 205 138 138 206 206 137 139 207 207 136 137 208 208 139 136 209 209 143 140 210 210 140 141 211 211 142 142 212 212 141 143 213 213 140 141 214 214 143 140 215 215 147 144 216 216 146 145 217 217 144 146 218 218 145 147 219 219 147 144 220 220 144 146 221 221 151 148 222 222 150 149 223 223 148 150 224 224 149 151 225 225 151 148 226 226 148 150 227 227 155 152 228 228 152 153 229 229 154 154 230 230 153 155 231 231 152 153 232 232 155 152 233 233 159 156 234 234 156 157 235 235 158 158 236 236 157 159 237 237 156 157 238 238 159 156 239 239</p>
        </triangles>
      </mesh>
    </geometry>
  </library_geometries>
  <library_visual_scenes>
    <visual_scene id="Scene" name="Scene">
      <node id="Grass_B_Low_Dense" name="Grass_B_Low_Dense" type="NODE">
        <matrix sid="transform">1 0 0 -0.6554715 0 1 0 -1.2 0 0 1 0 0 0 0 1</matrix>
        <instance_geometry url="#Leaves_002-mesh" name="Grass_B_Low_Dense">
          <bind_material>
            <technique_common>
              <instance_material symbol="Grass_C-material" target="#Grass_C-material">
                <bind_vertex_input semantic="uv0" input_semantic="TEXCOORD" input_set="0"/>
                <bind_vertex_input semantic="blend_ao" input_semantic="TEXCOORD" input_set="1"/>
              </instance_material>
            </technique_common>
          </bind_material>
        </instance_geometry>
      </node>
    </visual_scene>
  </library_visual_scenes>
  <scene>
    <instance_visual_scene url="#Scene"/>
  </scene>
</COLLADA>